# xmcd CD database file
#
# Track frame offsets:
#	150
#	9455
#	22903
#	36760
#	51838
#	71583
#	84307
#	103251
#	117250
#	130034
#	142727
#	154801
#	167124
#	184776
#
# Disc length: 2692 seconds
#
# Revision: 0
# Processed by: cddbd v1.5.2PL0 Copyright (c) Steve Scherf et al.
# Submitted via: CDex 1.51
#
DISCID=ae0a820e
DTITLE=Jimmy Dorsey - Jazz Giants - CD2
DYEAR=2006
DGENRE=Jazz
TTITLE0=Big Butter And Egg Man
TTITLE1=Just You, Just Me
TTITLE2=I'll Do Anything For You
TTITLE3=Fools Rush In
TTITLE4=I Got Rhythm
TTITLE5=Begin The Beguine
TTITLE6=Body And Soul
TTITLE7=Let's Fall In Love
TTITLE8=Three Little Words
TTITLE9=This Can't BeLove
TTITLE10=Shophisticated Swing
TTITLE11=I'm Stepping Out With Memory Tonight
TTITLE12=I Can't Get Started Without You
TTITLE13=Carolina In The Morning
EXTD=YEAR: 2006
EXTT0=
EXTT1=
EXTT2=
EXTT3=
EXTT4=
EXTT5=
EXTT6=
EXTT7=
EXTT8=
EXTT9=
EXTT10=
EXTT11=
EXTT12=
EXTT13=
PLAYORDER=
